PathFileType	4	(X/Y/Z)	/home/utkubuntu/opensim/opensim_mycode/release_code/bioimitation/imitation_envs/data/02905/02905_PRE/experimental_data/task.trc
DataRate	CameraRate	NumFrames	NumMarkers	Units	OrigDataRate	OrigDataStartFrame	OrigNumFrames
100.000000	100.000000	4	43	mm	100.000000	418	478
Frame#	Time	C7			CLAV			LANK			LASI			LBHD			LELB			LFHD			LFIN			LHEE			LKNE			LMED			LMET			LMIF			LPSI			LSHO			LTHI			LTIB			LTOE			LTTU			LWRA			LWRB			RANK			RASI			RBAK			RBHD			RELB			RFHD			RFIN			RHEE			RKNE			RMED			RMET			RMIF			RPSI			RSHO			RTHI			RTIB			RTOE			RTTU			RWRA			RWRB			STRN			T10			
		X1	Y1	Z1	X2	Y2	Z2	X3	Y3	Z3	X4	Y4	Z4	X5	Y5	Z5	X6	Y6	Z6	X7	Y7	Z7	X8	Y8	Z8	X9	Y9	Z9	X10	Y10	Z10	X11	Y11	Z11	X12	Y12	Z12	X13	Y13	Z13	X14	Y14	Z14	X15	Y15	Z15	X16	Y16	Z16	X17	Y17	Z17	X18	Y18	Z18	X19	Y19	Z19	X20	Y20	Z20	X21	Y21	Z21	X22	Y22	Z22	X23	Y23	Z23	X24	Y24	Z24	X25	Y25	Z25	X26	Y26	Z26	X27	Y27	Z27	X28	Y28	Z28	X29	Y29	Z29	X30	Y30	Z30	X31	Y31	Z31	X32	Y32	Z32	X33	Y33	Z33	X34	Y34	Z34	X35	Y35	Z35	X36	Y36	Z36	X37	Y37	Z37	X38	Y38	Z38	X39	Y39	Z39	X40	Y40	Z40	X41	Y41	Z41	X42	Y42	Z42	X43	Y43	Z43	

419	4.18	2456.385986328125	1249.116943359375	226.2380065917963	2567.430908203125	1179.621948242188	234.3059997558588	2475.533935546875	70.22000122070317	200.9259948730465	2556.176025390625	840.8599853515625	128.5019989013667	2471.02294921875	1382.442016601562	156.61099243164	2480.486083984375	940.5239868164062	39.76200103759714	2610.613037109375	1397.633056640625	154.6089935302728	2499.618896484375	676.3610229492188	16.71800041198685	2439.01611328125	40.71099853515631	255.6320037841794	2535.4609375	441.0109863281251	137.8679962158199	2510.705078125	78.73000335693365	266.1570129394528	2541.695068359375	31.27700042724613	158.47200012207	2545.653076171875	77.87699890136723	212.7700042724606	2411.251953125	866.0009765625	186.7359924316401	2491.715087890625	1206.115966796875	91.61000061035099	2537.635986328125	498.4930114746094	86.63700103759723	2487.6279296875	237.0030059814453	123.97200012207	2581.81005859375	47.50699996948246	180.4900054931637	2584.89111328125	353.4209899902344	197.514007568359	2528.552001953125	735.2559814453125	47.08800125122023	2464.8369140625	728.905029296875	34.35200119018509	2322.635009765625	181.6690063476563	362.1440124511715	2546.39501953125	836.6810302734376	349.9339904785152	2405.876953125	1136.182006835938	319.7619934082026	2455.5830078125	1365.52001953125	293.4249877929682	2456.340087890625	968.4479980468751	458.3420104980464	2610.455078125	1395.22900390625	291.7590026855462	2558.47607421875	734.8489990234376	486.0390014648432	2274.594970703125	175.916000366211	308.0549926757809	2581.845947265625	443.7579956054688	370.567993164062	2352.195068359375	152.3890075683594	299.0899963378903	2354.1689453125	94.92099761962899	398.4379882812497	2382.447998046875	142.7579956054688	353.1109924316403	2411.366943359375	866.4879760742189	282.5020141601558	2485.04296875	1236.259033203125	353.6180114746088	2578.820068359375	527.8209838867189	417.6170043945308	2458.7080078125	333.6319885253907	418.8949890136715	2387.6650390625	88.30100250244149	375.4890136718747	2592.4990234375	344.3460083007813	329.7319946289059	2555.98095703125	774.7239990234376	446.1310119628901	2503.139892578125	755.8499755859376	483.7590026855464	2603.8330078125	1059.745971679688	242.5229949951166	2423.837890625	976.8569946289062	239.8970031738276	
420	4.19	2466.4560546875	1249.838989257812	225.526992797851	2577.697021484375	1180.203002929688	233.7200012207026	2475.85693359375	70.44899749755864	201.1779937744137	2565.0830078125	840.8400268554688	127.364997863769	2481.701904296875	1383.4169921875	156.6470031738275	2497.697998046875	942.1630249023438	36.2579994201655	2621.235107421875	1398.342041015625	155.0359954833978	2528.381103515625	679.614013671875	11.46800041198684	2438.7099609375	41.18600082397467	255.9369964599606	2539.10595703125	440.6619873046876	138.1670074462887	2511.049072265625	78.65499877929693	266.4590148925778	2541.910888671875	31.36199951171879	158.5939941406247	2546.074951171875	77.80799865722661	213.0740051269528	2420.5029296875	866.5139770507812	186.1020050048823	2502.677978515625	1207.441040039062	90.87599945068301	2541.694091796875	497.9410095214844	86.87200164794879	2489.0048828125	237.0980072021485	124.3209991455075	2582.044921875	47.4959983825684	180.6289978027341	2587.513916015625	352.7520141601563	197.8630065917965	2553.635009765625	738.9229736328125	43.79800033569288	2490.660888671875	730.0869750976562	28.62199974060012	2350.8369140625	174.8289947509766	360.1870117187497	2556.241943359375	837.9219970703126	348.8399963378901	2415.575927734375	1136.735961914062	318.2730102539057	2465.802978515625	1366.0830078125	293.3959960937494	2462.972900390625	968.7239990234376	456.796997070312	2620.846923828125	1395.47705078125	292.1549987792962	2560.64990234375	732.6829833984376	484.3320007324214	2303.111083984375	166.6629943847657	305.7170104980465	2600.10400390625	446.8059997558594	370.0130004882808	2382.424072265625	146.7270050048829	297.3210144042965	2385.9560546875	90.62000274658212	397.3859863281247	2412.235107421875	138.8540039062501	351.5809936523434	2420.93408203125	867.3980102539064	281.8729858398433	2494.89501953125	1236.458984375	352.8489990234369	2594.263916015625	530.8280029296876	417.2330017089839	2481.4951171875	330.894012451172	418.0230102539059	2419.81103515625	85.18000030517587	374.794006347656	2614.049072265625	347.8670043945313	328.6610107421871	2558.967041015625	772.7719726562501	444.5299987792964	2505.820068359375	755.1019897460939	482.1759948730464	2613.551025390625	1060.136962890625	241.4759979248041	2433.52392578125	977.6119995117188	238.7510070800776	
421	4.2	2476.528076171875	1250.422973632812	224.8229980468744	2587.965087890625	1180.536010742188	233.1139984130854	2476.048095703125	70.63400268554692	201.503997802734	2574.0390625	840.593017578125	126.4700012207026	2492.333984375	1384.223022460938	156.7769927978509	2514.77197265625	943.844970703125	32.79299926757761	2631.822021484375	1398.964965820312	155.5350036621087	2557.162109375	683.4749755859375	6.455999851226341	2438.344970703125	41.54899978637701	256.1430053710935	2542.535888671875	440.2999877929688	138.4689941406246	2511.39794921875	78.59999847412115	266.7300109863278	2542.19189453125	31.45999908447269	158.7089996337887	2546.5400390625	77.83599853515629	213.3399963378903	2429.653076171875	866.8070068359375	185.2810058593745	2513.654052734375	1208.589965820312	90.15699768066348	2545.3701171875	497.4360046386719	87.10600280761676	2490.52001953125	237.093994140625	124.6460037231442	2582.326904296875	47.50199890136723	180.7550048828122	2589.9609375	352.0679931640626	198.2489929199215	2578.66796875	743.010986328125	40.52299880981398	2516.5400390625	731.60400390625	23.24699974060011	2379.967041015625	167.4850006103516	358.3070068359372	2565.97412109375	838.9990234375001	347.9360046386714	2425.300048828125	1137.177978515625	316.8410034179682	2475.93310546875	1366.39697265625	293.4479980468744	2469.696044921875	968.8020019531251	455.2109985351557	2631.2060546875	1395.531005859375	292.6119995117181	2562.743896484375	730.4169921875001	482.682006835937	2332.56103515625	156.8829956054688	303.3089904785153	2617.783935546875	449.7839965820313	369.6270141601558	2413.48291015625	140.8059997558594	295.4790039062497	2418.419921875	85.76699829101571	396.0740051269528	2442.62109375	134.561996459961	349.9700012207028	2430.388916015625	868.0510253906251	281.0899963378902	2504.83203125	1236.488037109375	352.0899963378901	2609.281005859375	533.7579956054689	416.9819946289058	2504.4189453125	327.7600097656251	417.2999877929684	2452.56005859375	81.67800140380868	373.8169860839841	2635.18896484375	351.4259948730469	327.7489929199215	2561.97705078125	770.7050170898439	443.0130004882807	2508.445068359375	754.2529907226564	480.5950012207027	2623.284912109375	1060.296020507812	240.4069976806635	2443.2080078125	978.2210083007812	237.630996704101	
422	4.21	2486.77001953125	1250.845947265625	224.0970001220697	2598.217041015625	1180.640014648438	232.5130004882807	2476.177001953125	70.80999755859379	201.8329925537106	2583.013916015625	840.1829833984375	125.7369995117183	2502.93310546875	1384.860961914062	156.9779968261712	2531.72509765625	945.5449829101562	29.37199974060007	2642.406982421875	1399.47900390625	156.0780029296869	2585.85595703125	687.89697265625	1.69000005721999	2438.153076171875	41.84400177001959	256.2709960937497	2545.72412109375	439.9790039062501	138.7310028076168	2511.757080078125	78.59100341796881	266.9689941406247	2542.488037109375	31.55500030517582	158.8070068359372	2547.011962890625	77.89800262451176	213.555999755859	2438.697021484375	866.926025390625	184.3619995117182	2524.656982421875	1209.550048828125	89.4560012817377	2548.87890625	497.0559997558594	87.29100036621051	2492.14111328125	237.0679931640625	124.9160003662106	2582.6689453125	47.52700042724614	180.8549957275387	2592.281982421875	351.4289855957032	198.6549987792965	2603.60400390625	747.4959716796875	37.25099945068311	2542.407958984375	733.4219970703125	18.32200050353956	2409.923095703125	159.7530059814454	356.451995849609	2575.623046875	839.8800048828126	347.1640014648432	2435.0009765625	1137.505004882812	315.4379882812495	2486.052001953125	1366.470947265625	293.5450134277338	2476.548095703125	968.6729736328126	453.5629882812495	2641.5458984375	1395.406005859375	293.1180114746087	2564.75390625	728.0520019531251	481.098999023437	2362.970947265625	146.7319946289063	300.8919982910153	2634.83203125	452.6520080566407	369.369995117187	2445.041015625	134.6629943847657	293.6149902343747	2451.5458984375	80.46800231933602	394.5220031738278	2473.544921875	129.9900054931641	348.3190002441403	2439.798095703125	868.4569702148439	280.2380065917964	2514.801025390625	1236.35400390625	351.3510131835932	2623.9140625	536.5670166015626	416.8680114746089	2527.258056640625	324.4519958496095	416.639007568359	2485.881103515625	77.90699768066415	372.5790100097653	2655.860107421875	354.9930114746094	327.0320129394527	2565.01806640625	768.5200195312501	441.5809936523432	2511.027099609375	753.3099975585939	479.0039978027339	2633.0439453125	1060.2509765625	239.3609924316401	2452.89892578125	978.6920166015625	236.5429992675776	
